<?xml version="1.0" encoding="UTF-8"?>
<svg id="Layer_2" data-name="Layer 2" xmlns="http://www.w3.org/2000/svg" viewBox="0 0 411.34 411.34">
  <defs>
    <style>
      .cls-1 {
        fill: #fff;
      }
    </style>
  </defs>
  <g id="Layer_1-2" data-name="Layer 1">
    <g>
      <polygon class="cls-1" points=".4 411.34 0 411.34 0 0 411.34 0 411.34 .4 .4 .4 .4 411.34"/>
      <path class="cls-1" d="M170.88,177.1l145.97-.14c1.22.3,2.96.18,4.02.8.5.29,7.93,7.72,8.23,8.23.63,55.12.63,110.68,0,165.78l-9.02,9.84c-50.74.88-101.72.1-152.55.39l-1.41-.6-9.63-10.44-.4-1.6.02-161.75.41-.79c3.89-1.89,7.59-7.06,11.16-8.9,1.13-.58,2-.58,3.2-.81ZM311.81,191.42l-139.25.4v136.85l139.25-.4v-136.85ZM258.84,341.11h-39.93l-.6.6v7.83h40.53v-8.43Z"/>
      <path class="cls-1" d="M63.41,174.17l11.04,26.48,4.61,34.72c0,.52-.29.69-.65.96-1.32,1.03-4.72,2.23-6.45,3.18-5.16,2.83-10.22,5.87-15.39,8.69-4.13,7.55-8.25,15.17-11.62,23.08l5.82-1.2,23.76-21.19,41.45-6.1c-1.14,16.43-4.12,32.71-6.86,48.91l-16.41-.76,12.44-17.65c-7.39,3.2-14.65,6.72-22.08,9.82-3.32,1.38-14.35,6.42-17.09,6.62-1.94.14-7.82-2.06-9.99-2.79-5.78-1.93-11.45-4.36-17.06-6.71-1.97-10.06-3.09-20.19-3.6-30.42-1.39-27.37.26-55.66,9.65-81.46l39.04-26c1.27-.56,2.88,1.04,4.01,1.78,10.73,7.04,20.91,15.51,31.57,22.71,2.75,14.05,5.77,28.07,8.31,42.15.5,2.78,2.99,14.48,2.45,16.25-.36,1.19-6.63,6.88-8.34,7.31l-31.7,4.61-6.83-43.13-13.03-19.87h-7.02Z"/>
      <polygon class="cls-1" points="117.18 362.38 46.15 362.38 52.57 298.17 110.08 316.66 126.21 291.34 117.18 362.38"/>
      <path class="cls-1" d="M158.52,67.42l-37.21,9.34c-6.44,9.27-14.65,17.06-21.99,25.57-13.96,16.19-26.97,33.29-41.93,48.56,7.21-22.07,13.53-44.41,19.67-66.8,24.55-9.06,49.11-18.14,74.14-25.83.53-.18.71.02,1.08.33.64.55,5.33,6.87,5.85,7.81.18.33.55.42.38,1.02Z"/>
      <path class="cls-1" d="M255.83,73.15c11.92,5.85,23.29,12.62,34.71,19.36l.75.87-2.96,16.95-12.81,15.98-13.74-11.47-11.97,3.14c-1.23-.03-1.92-3.02-1.75-4.14l4.77-20.96c-.05-1.58-5.75-2.52-5.91-3.56.68-2.56,6.75-15.98,8.93-16.16ZM263.25,109.15l4.04-9.81,13.62-2.83-8.03-7.24-14.39,2.26.14,3.19,4.63,14.42Z"/>
      <path class="cls-1" d="M370.41,170.15h-79.46l28.62-29.23c12.16,6.65,24.98,12.08,37.2,18.59,2.91,1.55,6.32,3.27,9.09,4.96,2.55,1.56,4.08,2.34,4.55,5.69Z"/>
      <path class="cls-1" d="M158.51,115.98c-4.88-1.53-11.75-.66-15.45-4.41l-12.04,14.03-11.61-9.66-4.17-18.54,11.27-13.82,25.39-6.06c.32.09.38.34.5.61.42.94,2.89,9.58,2.92,10.37.06,2.22-2.2,4.12-2.4,6.35l5.59,21.12ZM148.87,91.53l-12.57-3.95c-.97.1-6.45,5.84-7.77,7.01-.27.24-.77-.02-.51.92l10.14,2.41c.72.96,1.1,2.12,1.8,3.11.19.27-.09.72.65.46,1.99-.7,5.16-4.7,7.37-5.68l.9-4.27Z"/>
      <path class="cls-1" d="M315.83,109.56l3.15-8.36c-18.38-14-39.02-24.33-59.33-35.18,2.02-1.45,10.54-8.06,12.54-7.76,18.67,6.87,37.28,14.28,54.09,25.03l-1.8,18.27-8.65,8Z"/>
      <path class="cls-1" d="M321.04,69.82c-11.79-4.19-22.99-9.85-34.52-14.63-2.38-.98-11.62-5.06-13.44-5.05-1.17.01-6.79,2.71-8.24,3.41-7.73,3.77-13.34,7.1-18.05,14.46-3.14,4.91-5.14,9.86-4.81,15.86l-6.83-14.65,5.45-18.63,9.11-6.95c10.86-.51,23.45-2.59,34.23-1.53,1.78.17,20.24,8.53,22.23,9.88,2.13,1.45,6.2,6.59,8.04,8.81,2.4,2.9,4.69,5.92,6.83,9.02Z"/>
      <path class="cls-1" d="M149.18,161.03l6.93,10.93-10.36,11.31-.09,27.2-5.01,6.23c-.6-.36-.47-.87-.6-1.4-4.05-16.46-5.35-34.12-10.35-50.47l4.57-9.9,14.91,6.09Z"/>
      <polygon class="cls-1" points="140.45 51.37 78.66 72.23 87.9 56.39 115.16 45.93 117.27 45.84 140.45 51.37"/>
      <polygon class="cls-1" points="301.78 118.38 307.33 119.26 311.35 132.94 283.73 160.12 281.12 151.28 296.97 134.56 299.38 98.72 309.4 108.15 301.78 118.38"/>
      <path class="cls-1" d="M107.15,129.42l16.03,21.65c-.42,1.16-.7,2.56-1.15,3.68-.16.41.22.69-.63.55l-29.52-21.15,3.21-12.78,12.06-15.03v23.08Z"/>
      <path class="cls-1" d="M145.67,236.77v20.67c-3.55,3.22-7.78,6.61-12.02,8.85-1.75.92-6.1,2.96-7.89,3.35-.86.19-.54-.38-.57-.97l2.6-27.51,17.88-4.39Z"/>
      <path class="cls-1" d="M275.7,170.15h-50.97l24.68-16.43,9.7,7.53c1.57-.27,6.69-5.25,7.76-4.57l8.83,13.47Z"/>
      <rect class="cls-1" x="338.3" y="229.15" width="19.66" height="18.06"/>
      <rect class="cls-1" x="337.9" y="187.41" width="34.51" height="5.22"/>
      <path class="cls-1" d="M151.29,124.4l-.05,3.56-7,2.04c-.08,2.56,2.42,3.62,3.75,5.43l-2.51,4.2-7.37-4.87,2.42-9.09,10.76-1.28Z"/>
      <path class="cls-1" d="M267.6,136.37l-1.73,1.27-3.41-5.81-7.76-1.02-3.87,11.25,1.2-17.25,11.22,2.63c.7,1.44,4.98,7.88,4.36,8.94Z"/>
      <path class="cls-1" d="M351.95,361.98h-9.63l21.27-16.85c.21.8-.27,1.09-.58,1.62-2.38,4.01-7.32,9.88-10.35,13.74-.35.44-.65.92-.7,1.49Z"/>
      <rect class="cls-1" x="351.54" y="258.44" width="6.42" height="11.64"/>
      <path class="cls-1" d="M344.32,258.44v11.64c-2.02.04-4.07-.22-6.02.4v-12.04h6.02Z"/>
      <path class="cls-1" d="M250.82,286.13v30.7c-.3.41-.35.44-.82.44-11.81.04-23.67-.52-35.5-.23-4.78.47-13.73,4.41-17.66,4.41h-7.83l22.47-8.03v-30.9c1.07.44,5.57,3.61,6.22,3.61h33.11Z"/>
      <path class="cls-1" d="M261.65,202.26v30.1c-.51-.22-1.19.4-1.4.4h-28.89l-.6-.6v-29.9h30.9Z"/>
      <path class="cls-1" d="M211.89,279.71l5.59-3.44c1.77-1.24,5.14-4.75,7.03-5.01h54.21s10.22,6.84,10.22,6.84l-21.21.46-.16,36.68c-.09.49-6.98,2.02-7.9,2.03-.48,0-.53-.04-.83-.44v-37.12h-46.95Z"/>
      <polygon class="cls-1" points="193.03 222.72 193.03 309.01 184.2 311.41 184.2 222.72 193.03 222.72"/>
      <polygon class="cls-1" points="223.13 202.66 223.13 210.28 183.8 210.69 183.8 202.66 223.13 202.66"/>
      <path class="cls-1" d="M304.99,210.69h-34.11v-8.03h33.91c1.34,2.2.39,5.55.2,8.03Z"/>
      <path class="cls-1" d="M253.63,240.38v10.63c0,.98-6.43,11-7.42,12.63l-7.02-11.83v-11.84c.29-.11.48.4.6.4h13.85Z"/>
      <path class="cls-1" d="M280.51,321.85c-.17-.75.25-.78.67-1.14.89-.77,9.04-6.37,9.78-6.67,2.89-1.17,10.25.42,13.61.21-.03,1.28.83,2.26.05,3.41-.46.68-6.5,4.19-7.05,4.19h-17.06Z"/>
    </g>
  </g>
</svg>